<svg width="153" height="33" viewBox="0 0 153 33" fill="none" xmlns="http://www.w3.org/2000/svg">
<path fill-rule="evenodd" clip-rule="evenodd" d="M16.6221 14.344V30.624L23.8917 33V14.344H28.568V30.624L35.795 33L40.5137 26.4H35.8374V10.34L28.6105 7.744L23.8917 13.464V10.34L16.6647 7.744L11.9459 13.464V10.34L4.71883 7.744L0 14.344H4.67629V30.624L11.9458 33V14.344H16.6221ZM94.6738 26.4V10.12L87.4043 7.744V30.404L94.6313 33L99.3501 27.28V30.404L106.577 33L111.296 26.4H106.62V10.12L99.3501 7.744V26.4H94.6738ZM148.324 11L141.224 7.744L132.807 11.88L141.224 15.136L129.661 20.9V30.316L136.931 33L141.224 27.236V30.404L148.494 33L153 26.356H148.324V11ZM49.9089 33L58.2412 29.568L49.9089 26.356V21.736L60.8344 16.28L54.6277 7.744L42.6394 13.684V29.788L49.9089 33ZM128.088 25.872L119.246 23.1L127.535 12.188L117.163 7.744L111.721 14.872L120.606 17.688L112.146 28.556L122.647 33L128.088 25.872ZM136.931 26.4V19.888L141.224 17.776V26.4H136.931ZM49.9089 12.012L53.5649 17.204L49.9089 19.008V12.012ZM62.7049 29.788L69.9744 33L81.9202 28.072V8.58L62.705 0V7.59943L74.6507 12.4834V28.116L69.9745 26.356V12.628L62.705 15.004L62.7049 29.788Z" fill="black"/>
</svg>
